<svg width="72" height="70" viewBox="0 0 72 70" fill="none" xmlns="http://www.w3.org/2000/svg">
<path d="M13.1577 6.77246C10.5345 6.77246 8.40039 8.90588 8.40039 11.528C8.40039 14.1501 10.5345 16.2835 13.1577 16.2835C15.7831 16.2835 17.919 14.1501 17.919 11.528C17.919 8.90588 15.7831 6.77246 13.1577 6.77246ZM13.1577 13.4474C12.0984 13.4474 11.2367 12.5863 11.2367 11.528C11.2367 10.4696 12.0984 9.60873 13.1577 9.60873C14.2192 9.60873 15.0829 10.4698 15.0829 11.5281C15.0829 12.5865 14.2192 13.4474 13.1577 13.4474Z" fill="#021037"/>
<path d="M54.7542 6.77234H42.1782C39.555 6.77234 37.4209 8.90576 37.4209 11.5279C37.4209 14.1499 39.555 16.2834 42.1782 16.2834H54.7542C57.3774 16.2834 59.5115 14.1499 59.5115 11.5279C59.5115 8.90576 57.3774 6.77234 54.7542 6.77234ZM54.7542 13.4472H42.1782C41.1189 13.4472 40.2572 12.5862 40.2572 11.5279C40.2572 10.4695 41.1191 9.60846 42.1782 9.60846H54.7542C55.8135 9.60846 56.6753 10.4695 56.6753 11.5279C56.6753 12.5862 55.8135 13.4472 54.7542 13.4472Z" fill="#021037"/>
<path d="M25.4859 6.77234C22.8626 6.77234 20.7285 8.90576 20.7285 11.5279C20.7285 14.1499 22.8626 16.2834 25.4859 16.2834C28.1112 16.2834 30.2471 14.1499 30.2471 11.5279C30.2471 8.90576 28.1112 6.77234 25.4859 6.77234ZM25.4859 13.4472C24.4265 13.4472 23.5648 12.5862 23.5648 11.5279C23.5648 10.4695 24.4267 9.60846 25.4859 9.60846C26.5473 9.60846 27.411 10.4695 27.411 11.5279C27.411 12.5862 26.5473 13.4472 25.4859 13.4472Z" fill="#021037"/>
<path d="M23.1737 30.2811C22.4122 30.0987 21.6468 30.5688 21.4648 31.3307L18.6514 43.1036C18.4695 43.8653 18.9393 44.6305 19.7011 44.8124C19.8119 44.8389 19.9228 44.8517 20.032 44.8517C20.6731 44.8517 21.2544 44.4138 21.4099 43.7628L24.2233 31.99C24.4054 31.2282 23.9354 30.4632 23.1737 30.2811Z" fill="#021037"/>
<path d="M28.3803 43.4288C28.6506 43.6696 28.9875 43.788 29.323 43.788C29.7135 43.788 30.1024 43.6277 30.3826 43.3131L34.3592 38.8491C35.0154 38.1187 35.0154 36.9748 34.3633 36.2491L30.3825 31.7804C29.8613 31.1954 28.9648 31.144 28.3803 31.6647C27.7953 32.1857 27.7435 33.0822 28.2645 33.6669L31.7207 37.5466L28.2645 41.4265C27.7437 42.0115 27.7954 42.9079 28.3803 43.4288Z" fill="#021037"/>
<path d="M14.495 31.6649C13.91 31.1439 13.0138 31.1961 12.4928 31.7806L8.51663 36.2442C7.85963 36.9748 7.85963 38.1192 8.51213 38.8446L12.4929 43.3133C12.7732 43.628 13.1619 43.7882 13.5525 43.7882C13.8881 43.7882 14.2252 43.6698 14.4953 43.429C15.0803 42.908 15.132 42.0115 14.611 41.4268L11.1549 37.5471L14.611 33.6673C15.1318 33.0823 15.08 32.1858 14.495 31.6649Z" fill="#021037"/>
<path d="M68.8206 46.7466H68.2941C68.0183 45.8534 67.661 44.9911 67.2251 44.167L67.6008 43.79C68.2009 43.1936 68.532 42.3972 68.5333 41.5476C68.5346 40.696 68.2045 39.8964 67.6038 39.2958L66.8717 38.5641V8.35784C66.8717 4.12798 63.8868 0.68689 60.2176 0.68689H6.65409C2.98491 0.68689 0 4.12798 0 8.35784V47.9934C0 52.2233 2.98491 55.6644 6.65409 55.6644H14.9743C15.7575 55.6644 16.3924 55.0295 16.3924 54.2463C16.3924 53.4632 15.7575 52.8282 14.9743 52.8282H6.65409C4.58466 52.8282 2.83627 50.6141 2.83627 47.9936V22.2657H64.0353V36.596C63.8737 36.5712 63.71 36.5548 63.5434 36.5548H63.5384C62.6888 36.5563 61.8924 36.887 61.3007 37.482L60.9173 37.8636C60.076 37.4191 59.1997 37.0576 58.2962 36.7815V36.2764C58.2962 34.5237 56.87 33.0979 55.1168 33.0979H52.5506C50.7996 33.0979 49.3753 34.5237 49.3753 36.2764V36.8161C48.4888 37.0947 47.6328 37.4532 46.8146 37.8885L46.4473 37.5223C45.8508 36.9229 45.0543 36.5918 44.2046 36.5906H44.1998C43.35 36.5906 42.5521 36.9203 41.9526 37.5194L40.1396 39.3316C39.5388 39.9321 39.2088 40.7318 39.21 41.5833C39.2113 42.433 39.5423 43.2293 40.1379 43.8211L40.5295 44.2138C40.1044 45.0252 39.7552 45.8717 39.4851 46.7464H38.9465C37.1954 46.7464 35.7711 48.1703 35.7711 49.9208V52.4896C35.7711 52.6038 35.7774 52.7166 35.7892 52.8277H27.538C26.7549 52.8277 26.12 53.4626 26.12 54.2458C26.12 55.0289 26.7549 55.6638 27.538 55.6638H38.9464H39.4905C39.7647 56.5468 40.1192 57.4 40.5516 58.2167L40.1684 58.5982C38.9347 59.8385 38.9358 61.8522 40.1714 63.0867L41.9854 64.9001C42.5819 65.4995 43.3784 65.8306 44.2281 65.8318H44.2327C45.0827 65.8318 45.8806 65.5021 46.4801 64.9029L46.8599 64.5233C47.684 64.9577 48.5408 65.3127 49.4228 65.5853V66.1342C49.4228 67.8869 50.8472 69.3127 52.5982 69.3127H55.1684C56.9194 69.3127 58.3438 67.8869 58.3438 66.1342V65.5887C59.2341 65.3141 60.0944 64.9577 60.9175 64.5232L61.2956 64.8999C61.892 65.4995 62.6884 65.8304 63.538 65.8318H63.5429C64.3927 65.8318 65.1907 65.5021 65.7913 64.9019L67.6004 63.0897C68.2004 62.4933 68.5316 61.6969 68.5329 60.8473C68.5341 59.9956 68.2041 59.196 67.6032 58.5954L67.2248 58.2171C67.6564 57.3997 68.0106 56.546 68.2844 55.664H68.8203C70.5735 55.664 71.9997 54.24 71.9997 52.4896V49.9208C72 48.1706 70.5738 46.7466 68.8206 46.7466ZM2.83627 19.4294V8.35784C2.83627 5.7373 4.58466 3.52316 6.65409 3.52316H60.2176C62.287 3.52316 64.0354 5.7373 64.0354 8.35784V19.4295L2.83627 19.4294ZM69.1637 52.4899C69.1637 52.67 69.0034 52.828 68.8205 52.828H67.1988C66.5376 52.828 65.9641 53.2849 65.8164 53.9293C65.5101 55.266 64.9841 56.5336 64.2527 57.6973C63.9004 58.2576 63.9827 58.9872 64.451 59.4551L65.5985 60.6019C65.6842 60.6876 65.6969 60.79 65.6969 60.8435C65.6968 60.9073 65.6802 61 65.5973 61.0821L63.7855 62.8971C63.6996 62.9829 63.5971 62.9959 63.5431 62.9959C63.4787 62.9959 63.3854 62.9791 63.3023 62.8955L62.1506 61.7485C61.6822 61.2821 60.954 61.2012 60.3948 61.5528C59.2294 62.2858 57.9565 62.8128 56.6111 63.1189C55.9658 63.266 55.5078 63.8397 55.5078 64.5018V66.1346C55.5078 66.3169 55.3493 66.4769 55.1687 66.4769H52.5985C52.4178 66.4769 52.2593 66.317 52.2593 66.1346V64.4977C52.2593 63.8351 51.8003 63.2607 51.154 63.1145C49.8258 62.8142 48.5551 62.2881 47.3775 61.5512C47.1455 61.4059 46.8848 61.3351 46.6256 61.3351C46.2593 61.3351 45.8962 61.4767 45.6227 61.7503L44.4753 62.8971C44.3894 62.9829 44.2869 62.9959 44.2329 62.9959C44.1686 62.9959 44.0751 62.9791 43.9937 62.8973L42.1767 61.0811C42.0494 60.954 42.0508 60.7287 42.175 60.6038L43.3266 59.4569C43.7971 58.9883 43.8794 58.2562 43.5248 57.6949C42.7923 56.535 42.2655 55.2682 41.959 53.9298C41.8113 53.2853 41.2379 52.8282 40.5765 52.8282H38.9467C38.7629 52.8282 38.6075 52.6734 38.6075 52.4902V49.9214C38.6075 49.7382 38.7629 49.5832 38.9467 49.5832H40.5724C41.2343 49.5832 41.8084 49.1252 41.9553 48.4798C42.2579 47.15 42.778 45.8884 43.5009 44.7299C43.85 44.1707 43.7676 43.4446 43.3019 42.9777L42.1418 41.8142C42.063 41.736 42.0464 41.6434 42.0463 41.5795C42.0463 41.5261 42.059 41.4237 42.1447 41.3381L43.9577 39.526C44.0436 39.4402 44.1461 39.4272 44.2001 39.4272C44.2644 39.4274 44.3579 39.444 44.441 39.5277L45.5846 40.6667C46.0544 41.1346 46.7852 41.2147 47.3446 40.8598C48.5034 40.1252 49.7725 39.593 51.1166 39.2785C51.7579 39.1284 52.2114 38.5564 52.2114 37.8977V36.2768C52.2114 36.0913 52.3666 35.9345 52.5504 35.9345H55.1167C55.3027 35.9345 55.46 36.0913 55.46 36.2768V37.8738C55.46 38.5382 55.9212 39.1135 56.5699 39.2579C57.9192 39.5584 59.2065 40.0892 60.396 40.8355C60.955 41.1859 61.6825 41.1049 62.1505 40.6389L63.3068 39.4872C63.3853 39.4083 63.4783 39.3917 63.5425 39.3915C63.5965 39.3915 63.6995 39.4045 63.7852 39.4902L65.5983 41.3022C65.6841 41.388 65.6968 41.4904 65.6968 41.5438C65.6966 41.6076 65.68 41.7003 65.5966 41.7831L64.449 42.9342C63.9817 43.4029 63.9007 44.1324 64.2538 44.6921C64.988 45.8561 65.5162 47.1307 65.8239 48.4804C65.971 49.1256 66.5447 49.5833 67.2066 49.5833H68.8205C69.0033 49.5833 69.1637 49.7415 69.1637 49.9215V52.4899Z" fill="#021037"/>
<path d="M53.8852 42.5447C49.1065 42.5447 45.2188 46.4307 45.2188 51.2073C45.2188 55.9817 49.1065 59.866 53.8852 59.866C58.6618 59.866 62.5477 55.9818 62.5477 51.2073C62.5477 46.4308 58.6618 42.5447 53.8852 42.5447ZM53.8852 57.0298C50.6705 57.0298 48.055 54.4178 48.055 51.2073C48.055 47.9946 50.6705 45.3809 53.8852 45.3809C57.0978 45.3809 59.7114 47.9946 59.7114 51.2073C59.7114 54.4178 57.0976 57.0298 53.8852 57.0298Z" fill="#021037"/>
<path d="M21.2984 52.828H21.2706C20.4875 52.828 19.8525 53.4629 19.8525 54.2461C19.8525 55.0292 20.4875 55.6641 21.2706 55.6641H21.2984C22.0816 55.6641 22.7165 55.0292 22.7165 54.2461C22.7165 53.4629 22.0816 52.828 21.2984 52.828Z" fill="#021037"/>
</svg>
