<svg width="200" height="40" viewBox="0 0 200 40" fill="none" xmlns="http://www.w3.org/2000/svg">
<g clip-path="url(#clip0_1038_5203)">
<path fill-rule="evenodd" clip-rule="evenodd" d="M22.1528 0.0839844L22.2781 10.2825C22.1528 10.2825 22.0274 10.3661 21.9438 10.4497L19.7285 9.154V1.54689C20.5645 0.710944 21.3586 0.251174 22.1528 0.0839844Z" fill="#6CBE45"/>
<path fill-rule="evenodd" clip-rule="evenodd" d="M22.4873 0.000205517V10.2823C22.5709 10.2823 22.6545 10.3241 22.6963 10.3659L31.7663 4.30533C30.6796 2.75883 29.2585 2.29906 27.4612 2.88422C25.8311 1.00334 24.201 -0.166984 22.4873 0.000205517Z" fill="#4BB348"/>
<path fill-rule="evenodd" clip-rule="evenodd" d="M32.4763 5.51749V16.5102C32.3091 16.552 32.1837 16.6356 32.1001 16.8028L22.9047 11.1183C22.9465 11.0347 22.9465 10.9511 22.9465 10.8675C22.9465 10.7004 22.9047 10.575 22.7793 10.4914L31.8911 4.55615C32.1419 4.84873 32.3091 5.18311 32.4763 5.51749Z" fill="#33B44A"/>
<path fill-rule="evenodd" clip-rule="evenodd" d="M36.5315 9.57201L32.8533 16.5522C32.7697 16.5104 32.6861 16.5104 32.6025 16.5104L32.8951 5.85205C34.985 6.31182 36.2389 7.52394 36.5315 9.57201Z" fill="#95C93D"/>
<path fill-rule="evenodd" clip-rule="evenodd" d="M38.1614 12.9991L33.1039 16.8026C33.0621 16.719 33.0203 16.6772 32.9785 16.6354L36.6149 10.0732C36.6149 10.324 36.6149 10.5748 36.6149 10.8256C37.409 11.4943 37.9106 12.2049 38.1614 12.9991Z" fill="#C3D42E"/>
<path fill-rule="evenodd" clip-rule="evenodd" d="M38.4536 20.6064L33.1035 17.4298C33.1453 17.3462 33.1871 17.2208 33.1871 17.0954C33.1871 17.0536 33.1871 16.9701 33.1453 16.9283L38.2864 13.3755C38.4954 14.4204 38.2864 15.5907 37.6176 16.8447C38.579 18.0986 39.0387 19.3525 38.4536 20.6064Z" fill="#32B04A"/>
<path fill-rule="evenodd" clip-rule="evenodd" d="M37.1571 26.5832L35.7778 27.2102C35.6942 27.0012 35.4852 26.8758 35.2344 26.8758L32.7266 17.6386C32.8102 17.6386 32.9355 17.555 32.9773 17.5132L38.2856 20.8152C38.0348 21.2331 37.7004 21.6093 37.1989 21.9855C38.829 23.6574 38.4946 25.1203 37.1153 26.4578L37.1571 26.5832Z" fill="#54B948"/>
<path fill-rule="evenodd" clip-rule="evenodd" d="M34.9012 27.0015L29.0078 19.2272L32.1426 17.4717C32.2262 17.5971 32.3934 17.6807 32.5606 17.7225L35.0684 26.9597C35.0266 26.9597 34.943 26.9597 34.9012 27.0015Z" fill="#6BB745"/>
<path fill-rule="evenodd" clip-rule="evenodd" d="M36.0717 29.8017L35.5283 28.0044C35.6955 27.9208 35.7791 27.7954 35.8209 27.5864L37.2838 26.9595C37.7436 28.3806 37.2838 29.3001 36.0717 29.8017Z" fill="#24AE4B"/>
<path fill-rule="evenodd" clip-rule="evenodd" d="M35.3188 28.0881L35.3606 28.2553L35.9458 30.3869C35.4442 32.644 34.3575 34.2323 32.8528 35.319L32.3094 35.2354L27.8789 32.435C27.9207 32.3514 27.9625 32.226 27.9625 32.1006C27.9625 32.017 27.9625 31.9752 27.9207 31.8916L34.8591 27.9209C34.9427 28.0045 35.068 28.0463 35.2352 28.0463C35.277 28.0881 35.277 28.0881 35.3188 28.0881Z" fill="#4FB348"/>
<path fill-rule="evenodd" clip-rule="evenodd" d="M27.8373 33.1452L28.9658 38.955C30.0944 38.2027 31.2229 37.116 32.3096 35.6531L27.7537 32.5601L27.7119 32.6019L27.8373 33.1452Z" fill="#0DB14B"/>
<path fill-rule="evenodd" clip-rule="evenodd" d="M34.6505 27.3775L24.5773 21.9438C24.5355 21.9856 24.452 22.0274 24.4102 22.0692L27.2524 31.5154C27.2942 31.5154 27.336 31.5154 27.336 31.5154C27.545 31.5154 27.7121 31.599 27.8375 31.7662L34.7759 27.8791C34.6923 27.7955 34.6505 27.6283 34.6505 27.5029C34.6505 27.4611 34.6505 27.4193 34.6505 27.3775Z" fill="#8AC640"/>
<path fill-rule="evenodd" clip-rule="evenodd" d="M27.1268 31.5991L24.201 22.1529H24.1592C23.9502 22.1529 23.783 22.0275 23.6577 21.8604L19.7705 23.7412V30.178L26.8342 32.0171C26.8342 31.8081 26.9596 31.6827 27.1268 31.5991Z" fill="#B0D235"/>
<path fill-rule="evenodd" clip-rule="evenodd" d="M20.1049 36.4894L26.876 32.3933C26.8342 32.3097 26.7925 32.2261 26.7925 32.1007L19.7705 30.7632V36.0714C19.8541 36.2386 19.9795 36.364 20.1049 36.4894Z" fill="#16AF4B"/>
<path fill-rule="evenodd" clip-rule="evenodd" d="M27.001 32.5186L20.3135 36.7401C22.3615 39.1643 24.3678 40.2093 26.4159 39.9585L27.3354 32.6857C27.21 32.6857 27.0846 32.6439 27.001 32.5186Z" fill="#90C33E"/>
<path fill-rule="evenodd" clip-rule="evenodd" d="M28.5893 39.2059L27.5861 32.6855C27.5443 32.6855 27.5443 32.6855 27.5025 32.6855L26.792 39.9165C27.3772 39.7911 28.0041 39.5403 28.5893 39.2059Z" fill="#BAD232"/>
<path fill-rule="evenodd" clip-rule="evenodd" d="M19.7705 9.78076L21.8604 10.6167C21.8186 10.7003 21.8186 10.7839 21.8186 10.8675V10.9093L19.7705 11.2855V9.78076Z" fill="#007A3F"/>
<path fill-rule="evenodd" clip-rule="evenodd" d="M19.7705 12.3721L21.9022 11.2018C21.9022 11.16 21.8604 11.16 21.8604 11.1182L19.7705 11.7869V12.3721Z" fill="#AAC892"/>
<path fill-rule="evenodd" clip-rule="evenodd" d="M19.7705 20.3556L23.6159 21.4005C23.6995 21.1497 23.9084 20.9407 24.201 20.9407C24.41 20.9407 24.5772 21.0661 24.7026 21.1915L28.6315 19.1852L22.6127 11.4109C22.5291 11.4527 22.4873 11.4527 22.4037 11.4527C22.2783 11.4527 22.1947 11.4109 22.0694 11.3691L19.7705 12.832V20.3556Z" fill="#90C33E"/>
<path fill-rule="evenodd" clip-rule="evenodd" d="M19.7705 20.6899L23.5741 21.5259C23.5741 21.5677 23.5741 21.6513 23.6159 21.6931L19.7705 23.4068V20.6899Z" fill="#26AD4A"/>
<path fill-rule="evenodd" clip-rule="evenodd" d="M34.6917 27.294L24.7021 21.7768C24.7439 21.6932 24.7439 21.6096 24.7439 21.526C24.7439 21.4842 24.7439 21.4006 24.7021 21.3588L28.7565 19.3525L34.7753 27.1686C34.7335 27.2104 34.6917 27.2522 34.6917 27.294Z" fill="#4AAE48"/>
<path fill-rule="evenodd" clip-rule="evenodd" d="M28.7981 19.1013L22.7793 11.2853C22.7793 11.2853 22.8211 11.2435 22.8211 11.2017L32.0165 16.9279C32.0165 16.9697 32.0165 17.0115 32.0165 17.0533C32.0165 17.1369 32.0165 17.2205 32.0583 17.3041L28.7981 19.1013Z" fill="#009248"/>
<path fill-rule="evenodd" clip-rule="evenodd" d="M16.5512 0.0839844L16.4258 10.2825C16.5512 10.2825 16.6766 10.3661 16.7602 10.4497L18.9754 9.15399V1.54689C18.1395 0.710944 17.3453 0.251174 16.5512 0.0839844Z" fill="#008BCD"/>
<path fill-rule="evenodd" clip-rule="evenodd" d="M16.2173 0.000205517V10.2823C16.1337 10.2823 16.0501 10.3241 16.0083 10.3659L6.89648 4.30533C7.98321 2.75883 9.40432 2.29906 11.2016 2.88422C12.8735 1.00334 14.5454 -0.166984 16.2173 0.000205517Z" fill="#21A0DB"/>
<path fill-rule="evenodd" clip-rule="evenodd" d="M6.22852 5.51749V16.5102C6.3957 16.552 6.5211 16.6356 6.60469 16.8028L15.7583 11.1183C15.7165 11.0347 15.7165 10.9511 15.7165 10.8675C15.7165 10.7004 15.7583 10.575 15.8837 10.4914L6.77188 4.55615C6.56289 4.84873 6.3957 5.18311 6.22852 5.51749Z" fill="#006DB4"/>
<path fill-rule="evenodd" clip-rule="evenodd" d="M2.17383 9.57201L5.85199 16.5522C5.93558 16.5104 6.01918 16.5104 6.10277 16.5104L5.81019 5.85205C3.72033 6.31182 2.46641 7.52394 2.17383 9.57201Z" fill="#0082C6"/>
<path fill-rule="evenodd" clip-rule="evenodd" d="M0.543945 12.9992L5.60142 16.8028C5.64321 16.7192 5.68501 16.6774 5.72681 16.6356L2.13224 10.1152C2.13224 10.366 2.13224 10.6168 2.13224 10.8676C1.33809 11.4945 0.794729 12.2051 0.543945 12.9992Z" fill="#22A8E0"/>
<path fill-rule="evenodd" clip-rule="evenodd" d="M0.251415 20.6064L5.60147 17.4298C5.55967 17.3462 5.51787 17.2208 5.51787 17.0954C5.51787 17.0536 5.51787 16.9701 5.55967 16.9283L0.418605 13.3755C0.209618 14.4204 0.418605 15.5907 1.08736 16.8447C0.126024 18.0986 -0.333747 19.3525 0.251415 20.6064Z" fill="#004E79"/>
<path fill-rule="evenodd" clip-rule="evenodd" d="M1.54799 26.5834L2.9273 27.2521C3.0109 27.0432 3.21989 26.9178 3.47067 26.9178L5.97851 17.6806C5.89491 17.6806 5.76952 17.597 5.72772 17.5552L0.419467 20.8572C0.670251 21.2751 1.00463 21.6513 1.5062 22.0275C-0.123898 23.6994 0.21048 25.1623 1.58979 26.4998L1.54799 26.5834Z" fill="#0070B7"/>
<path fill-rule="evenodd" clip-rule="evenodd" d="M3.80488 27.0015L9.6983 19.2272L6.56351 17.4717C6.47991 17.5971 6.31272 17.6807 6.14553 17.7225L3.6377 26.9597C3.67949 26.9597 3.76309 26.9597 3.80488 27.0015Z" fill="#0095D4"/>
<path fill-rule="evenodd" clip-rule="evenodd" d="M2.63319 29.8017L3.17656 28.0044C3.00937 27.9208 2.92577 27.7954 2.88398 27.5864L1.42107 26.9595C1.0031 28.3806 1.42107 29.3001 2.63319 29.8017Z" fill="#398ECD"/>
<path fill-rule="evenodd" clip-rule="evenodd" d="M3.38673 28.0878L3.34493 28.255L2.75977 30.3866C3.26133 32.6437 4.34806 34.232 5.85276 35.3187L6.39613 35.2351L10.8266 32.4347C10.7848 32.3511 10.743 32.2257 10.743 32.1003C10.743 32.0167 10.743 31.9749 10.7848 31.8913L3.84649 27.9624C3.7629 28.046 3.63751 28.0878 3.47032 28.0878C3.42852 28.0878 3.42852 28.0878 3.38673 28.0878Z" fill="#005B93"/>
<path fill-rule="evenodd" clip-rule="evenodd" d="M10.8678 33.1452L9.73929 38.955C8.61076 38.2027 7.48224 37.116 6.39551 35.6531L10.9514 32.5601L10.9932 32.6019L10.8678 33.1452Z" fill="#047BC1"/>
<path fill-rule="evenodd" clip-rule="evenodd" d="M4.05508 27.3775L14.1282 21.9438C14.17 21.9856 14.2536 22.0274 14.2954 22.0692L11.4532 31.5154C11.4114 31.5154 11.3696 31.5154 11.3696 31.5154C11.1606 31.5154 10.9934 31.599 10.868 31.7662L3.92969 27.8791C4.01328 27.7955 4.05508 27.6283 4.05508 27.5029C4.05508 27.4611 4.05508 27.4193 4.05508 27.3775Z" fill="#006CB6"/>
<path fill-rule="evenodd" clip-rule="evenodd" d="M11.6201 31.5991L14.5459 22.1529H14.5877C14.7967 22.1529 14.9639 22.0275 15.0893 21.8604L18.9764 23.7412V30.178L11.9127 32.0171C11.8709 31.8081 11.7455 31.6827 11.6201 31.5991Z" fill="#0081C5"/>
<path fill-rule="evenodd" clip-rule="evenodd" d="M18.6423 36.4894L11.8711 32.3933C11.9129 32.3097 11.9547 32.2261 11.9547 32.1007L18.9766 30.7632V36.0714C18.8512 36.2386 18.7258 36.364 18.6423 36.4894Z" fill="#19437F"/>
<path fill-rule="evenodd" clip-rule="evenodd" d="M11.7455 32.5186L18.4331 36.7401C16.385 39.1643 14.3787 40.2093 12.3307 39.9585L11.4111 32.6857C11.4947 32.6857 11.6201 32.6439 11.7455 32.5186Z" fill="#0083C1"/>
<path fill-rule="evenodd" clip-rule="evenodd" d="M10.1152 39.2059L11.1602 32.6855C11.202 32.6855 11.202 32.6855 11.2438 32.6855L11.9543 39.9165C11.3274 39.7911 10.7004 39.5403 10.1152 39.2059Z" fill="#009CD9"/>
<path fill-rule="evenodd" clip-rule="evenodd" d="M18.9356 9.78076L16.8457 10.6167C16.8875 10.7003 16.8875 10.7839 16.8875 10.8675V10.9093L18.9356 11.2855V9.78076Z" fill="#006593"/>
<path fill-rule="evenodd" clip-rule="evenodd" d="M18.9344 12.3721L16.8027 11.2018C16.8027 11.16 16.8445 11.16 16.8445 11.1182L18.9344 11.7869V12.3721Z" fill="#5F9BAF"/>
<path fill-rule="evenodd" clip-rule="evenodd" d="M18.9345 20.3556L15.0891 21.4005C15.0055 21.1497 14.7965 20.9407 14.504 20.9407C14.295 20.9407 14.1278 21.0661 14.0024 21.1915L10.1152 19.227L16.0922 11.4109C16.1758 11.4527 16.2176 11.4527 16.3012 11.4527C16.4266 11.4527 16.5102 11.4109 16.6356 11.3691L18.9345 12.832V20.3556Z" fill="#006CB3"/>
<path fill-rule="evenodd" clip-rule="evenodd" d="M18.9352 20.6899L15.1316 21.5259C15.1316 21.5677 15.1316 21.6513 15.0898 21.6931L18.9352 23.4068V20.6899Z" fill="#0EA5DF"/>
<path fill-rule="evenodd" clip-rule="evenodd" d="M4.0125 27.2937L14.0021 21.8183C13.9603 21.7347 13.9603 21.6511 13.9603 21.5675C13.9603 21.5257 13.9603 21.4421 14.0021 21.4003L9.94771 19.394L3.9707 27.1683C3.9707 27.2101 4.0125 27.2519 4.0125 27.2937Z" fill="#0084C8"/>
<path fill-rule="evenodd" clip-rule="evenodd" d="M9.90667 19.1013L15.9255 11.2853C15.9255 11.2853 15.8837 11.2435 15.8837 11.2017L6.68828 16.9697C6.68828 17.0115 6.68828 17.0533 6.68828 17.0951C6.68828 17.1787 6.68828 17.2623 6.64648 17.3459L9.90667 19.1013Z" fill="#0060A2"/>
<path d="M45.3925 27.001V15.047H47.1061V27.001H45.3925ZM45.5596 11.8286H46.9808V13.7931H45.5596V11.8286Z" fill="#134B94"/>
<path d="M52.7909 27.0012V21.7347C52.7909 20.5644 52.2476 20.1464 51.746 20.1464C51.2444 20.1464 50.6593 20.5644 50.6593 21.7347V27.0012H49.0292V18.2655H50.6175V19.0597C51.0354 18.4745 51.6206 18.1401 52.2058 18.1401C52.8327 18.1401 53.3761 18.4327 53.7105 18.8925C54.212 19.603 54.3792 20.439 54.3792 21.3585V26.9594H52.7909V27.0012Z" fill="#134B94"/>
<path d="M59.8964 27.0012V21.7347C59.8964 20.5644 59.353 20.1464 58.8515 20.1464C58.3499 20.1464 57.7647 20.5644 57.7647 21.7347V27.0012H56.1346V18.2655H57.7229V19.0597C58.1409 18.4745 58.7261 18.1401 59.3112 18.1401C59.9382 18.1401 60.4816 18.4327 60.8159 18.8925C61.3175 19.603 61.4847 20.439 61.4847 21.3585V26.9594H59.8964V27.0012Z" fill="#134B94"/>
<path d="M67.7113 26.0395C67.3351 26.6247 66.6663 27.1263 65.705 27.1263C64.7436 27.1263 64.1167 26.6247 63.6987 26.0395C63.1135 25.2036 62.9882 24.2422 62.9882 22.654C62.9882 21.0657 63.1553 20.1043 63.6987 19.2684C64.0749 18.6832 64.7436 18.1816 65.705 18.1816C66.6663 18.1816 67.2933 18.6832 67.7113 19.2684C68.2964 20.1043 68.4218 21.0657 68.4218 22.654C68.4218 24.2005 68.2964 25.2036 67.7113 26.0395ZM66.4573 20.5223C66.2902 20.2715 66.0394 20.1461 65.705 20.1461C65.3706 20.1461 65.1616 20.2715 64.9526 20.5223C64.6183 20.9821 64.5765 21.7344 64.5765 22.654C64.5765 23.5735 64.6183 24.3258 64.9526 24.7856C65.1198 25.0364 65.3706 25.1618 65.705 25.1618C66.0394 25.1618 66.2902 25.0364 66.4573 24.7856C66.7917 24.3258 66.8335 23.5735 66.8335 22.654C66.8335 21.7344 66.7917 20.9821 66.4573 20.5223Z" fill="#134B94"/>
<path d="M72.6441 27.0013H71.3901L69.0077 18.2656H70.7214L72.0171 23.6575L73.3128 18.2656H75.0265L72.6441 27.0013Z" fill="#134B94"/>
<path d="M79.123 27.0009V26.2485C78.705 26.8337 78.287 27.0845 77.5347 27.0845C76.8241 27.0845 76.2807 26.8337 75.9046 26.3321C75.5702 25.8305 75.3612 25.1618 75.3612 24.3676C75.3612 22.9883 76.0718 21.818 77.5765 21.818H79.0812V21.4C79.0812 20.4387 78.7468 20.0207 77.869 20.0207C77.2421 20.0207 76.9495 20.2297 76.6151 20.7313L75.5702 19.3938C76.1972 18.4742 76.8241 18.1816 77.9108 18.1816C79.7081 18.1816 80.6695 19.2266 80.6695 21.2746V27.0427H79.123V27.0009ZM79.123 23.3227H77.8272C77.2421 23.3227 76.9077 23.6989 76.9077 24.3258C76.9077 24.911 77.2003 25.329 77.8272 25.329C78.287 25.329 78.5378 25.2872 78.8304 24.911C78.9976 24.702 79.0812 24.3258 79.0812 23.8243V23.3227H79.123Z" fill="#134B94"/>
<path d="M84.4733 27.0011C83.1776 27.0011 82.5925 25.7472 82.5925 24.4932V20.1881H81.9237V18.5162H82.5925V15.9248H84.2226V18.5162H85.3511V20.1881H84.2226V24.3679C84.2226 24.8694 84.3897 25.162 84.7659 25.162H85.3511V27.0011H84.4733Z" fill="#134B94"/>
<path d="M86.7714 16.7607V14.9634H88.4015V16.7607H86.7714ZM86.8132 27.001V18.2654H88.4433V27.001H86.8132Z" fill="#134B94"/>
<path d="M92.9995 27.0013H91.7456L89.3632 18.2656H91.0768L92.3726 23.6575L93.6683 18.2656H95.382L92.9995 27.0013Z" fill="#134B94"/>
<path d="M99.3114 27.0009V15.0469H101.025V24.911H105.038V27.0009H99.3114Z" fill="#134B94"/>
<path d="M109.635 27.0009V26.2485C109.217 26.8337 108.799 27.0845 108.046 27.0845C107.336 27.0845 106.792 26.8337 106.416 26.3321C106.082 25.8305 105.873 25.1618 105.873 24.3676C105.873 22.9883 106.583 21.818 108.088 21.818H109.593V21.4C109.593 20.4387 109.259 20.0207 108.381 20.0207C107.754 20.0207 107.461 20.2297 107.127 20.7313L106.082 19.3938C106.709 18.4742 107.336 18.1816 108.423 18.1816C110.22 18.1816 111.181 19.2266 111.181 21.2746V27.0427H109.635V27.0009ZM109.593 23.3227H108.297C107.712 23.3227 107.378 23.6989 107.378 24.3258C107.378 24.911 107.67 25.329 108.297 25.329C108.757 25.329 109.008 25.2872 109.3 24.911C109.468 24.702 109.551 24.3258 109.551 23.8243V23.3227H109.593Z" fill="#134B94"/>
<path d="M115.319 28.4224C115.194 28.9239 115.027 29.2583 114.818 29.5509C114.442 30.0525 113.982 30.2197 113.439 30.2197H112.812V28.2552H113.188C113.648 28.2552 113.815 28.088 113.982 27.461L114.233 26.3743L112.017 18.2656H113.731L115.069 23.6575L116.364 18.2656H118.078L115.319 28.4224Z" fill="#134B94"/>
<path d="M118.998 16.7607V14.9634H120.628V16.7607H118.998ZM119.04 27.001V18.2654H120.67V27.001H119.04Z" fill="#134B94"/>
<path d="M126.145 27.0009V21.6508C126.145 20.4805 125.601 20.1043 125.1 20.1043C124.598 20.1043 124.055 20.5223 124.055 21.6508V27.0009H122.467V15.0469H124.097V19.0594C124.515 18.4743 125.058 18.1399 125.643 18.1399C127.064 18.1399 127.817 19.4774 127.817 21.3165V26.9591H126.145V27.0009Z" fill="#134B94"/>
<path d="M130.909 20.7731L129.822 19.352C130.491 18.516 131.034 18.1816 131.954 18.1816C132.915 18.1816 133.584 18.6832 133.96 19.2684C134.545 20.1043 134.671 21.0657 134.671 22.654C134.671 24.2422 134.504 25.2454 133.96 26.0395C133.584 26.6247 132.915 27.1263 131.954 27.1263C130.993 27.1263 130.366 26.6247 129.948 26.0395C129.363 25.2036 129.237 24.2422 129.237 22.654C129.237 22.3614 129.237 22.1106 129.237 21.8598H133.041C132.999 21.3164 132.915 20.8567 132.706 20.5223C132.539 20.2715 132.288 20.1461 131.954 20.1461C131.536 20.1461 131.243 20.3133 130.909 20.7731ZM133.041 23.3227H130.825C130.867 23.9079 130.951 24.4094 131.202 24.7438C131.369 24.9946 131.62 25.12 131.954 25.12C132.288 25.12 132.539 24.9946 132.706 24.7438C132.915 24.4512 133.041 23.9497 133.041 23.3227Z" fill="#134B94"/>
<path d="M138.058 27.0009C136.72 27.0009 136.177 25.747 136.177 24.4931V15.0469H137.807V24.3677C137.807 24.8692 137.974 25.1618 138.392 25.1618H139.019V27.0009H138.058Z" fill="#134B94"/>
<path d="M141.651 20.7731L140.565 19.352C141.233 18.516 141.777 18.1816 142.696 18.1816C143.658 18.1816 144.326 18.6832 144.703 19.2684C145.288 20.1043 145.413 21.0657 145.413 22.654C145.413 24.2422 145.246 25.2454 144.703 26.0395C144.326 26.6247 143.658 27.1263 142.696 27.1263C141.735 27.1263 141.108 26.6247 140.69 26.0395C140.105 25.2036 139.979 24.2422 139.979 22.654C139.979 22.3614 139.979 22.1106 139.979 21.8598H143.783C143.741 21.3164 143.658 20.8567 143.449 20.5223C143.281 20.2715 143.031 20.1461 142.696 20.1461C142.278 20.1461 142.027 20.3133 141.651 20.7731ZM143.825 23.3227H141.609C141.651 23.9079 141.735 24.4094 141.986 24.7438C142.153 24.9946 142.404 25.12 142.738 25.12C143.072 25.12 143.323 24.9946 143.49 24.7438C143.699 24.4512 143.783 23.9497 143.825 23.3227Z" fill="#134B94"/>
<path d="M150.471 20.6477C150.22 20.3133 150.011 20.1461 149.635 20.1461C149.133 20.1461 148.59 20.6477 148.59 21.7762V27.0427H146.96V18.2652H148.548V19.1012C148.841 18.5996 149.468 18.1816 150.178 18.1816C150.805 18.1816 151.265 18.3906 151.683 19.0176L150.471 20.6477Z" fill="#134B94"/>
<path d="M161.881 27.0009V20.0625L160.209 24.5767H159.039L157.325 20.0625V27.0009H155.611V15.0469H157.325L159.624 21.4837L161.923 15.0469H163.636V27.0009H161.881Z" fill="#134B94"/>
<path d="M166.939 20.7731L165.853 19.352C166.521 18.516 167.065 18.1816 167.984 18.1816C168.946 18.1816 169.614 18.6832 169.991 19.2684C170.576 20.1043 170.701 21.0657 170.701 22.654C170.701 24.2422 170.534 25.2454 169.991 26.0395C169.614 26.6247 168.946 27.1263 167.984 27.1263C167.023 27.1263 166.396 26.6247 165.978 26.0395C165.393 25.2036 165.267 24.2422 165.267 22.654C165.267 22.3614 165.267 22.1106 165.267 21.8598H169.071C169.029 21.3164 168.946 20.8567 168.737 20.5223C168.569 20.2715 168.319 20.1461 167.984 20.1461C167.566 20.1461 167.274 20.3133 166.939 20.7731ZM169.071 23.3227H166.856C166.898 23.9079 166.981 24.4094 167.232 24.7438C167.399 24.9946 167.65 25.12 167.984 25.12C168.319 25.12 168.569 24.9946 168.737 24.7438C168.946 24.4512 169.029 23.9497 169.071 23.3227Z" fill="#134B94"/>
<path d="M175.759 20.6477C175.508 20.3133 175.299 20.1461 174.923 20.1461C174.421 20.1461 173.878 20.6477 173.878 21.7762V27.0427H172.248V18.2652H173.836V19.1012C174.129 18.5996 174.756 18.1816 175.466 18.1816C176.093 18.1816 176.553 18.3906 176.971 19.0176L175.759 20.6477Z" fill="#134B94"/>
<path d="M181.736 27.0009L180.147 23.3645L179.479 24.4095V27.0009H177.849V15.0469H179.479V21.818L181.61 18.2653H183.575L181.276 21.7762L183.742 27.0009H181.736Z" fill="#134B94"/>
<path d="M186.208 20.7731L185.121 19.352C185.79 18.516 186.333 18.1816 187.253 18.1816C188.214 18.1816 188.883 18.6832 189.259 19.2684C189.844 20.1043 189.97 21.0657 189.97 22.654C189.97 24.2422 189.802 25.2454 189.259 26.0395C188.883 26.6247 188.214 27.1263 187.253 27.1263C186.292 27.1263 185.665 26.6247 185.247 26.0395C184.661 25.2036 184.536 24.2422 184.536 22.654C184.536 22.3614 184.536 22.1106 184.536 21.8598H188.34C188.298 21.3164 188.214 20.8567 188.005 20.5223C187.838 20.2715 187.587 20.1461 187.253 20.1461C186.835 20.1461 186.584 20.3133 186.208 20.7731ZM188.381 23.3227H186.166C186.208 23.9079 186.291 24.4094 186.542 24.7438C186.709 24.9946 186.96 25.12 187.295 25.12C187.629 25.12 187.88 24.9946 188.047 24.7438C188.256 24.4512 188.34 23.9497 188.381 23.3227Z" fill="#134B94"/>
<path d="M191.098 27.0013V25.3294L193.94 20.2301H191.223V18.2656H195.988V19.9375L193.104 25.0368H195.988V27.0013H191.098Z" fill="#134B94"/>
<path d="M197.409 16.7607V14.9634H199.039V16.7607H197.409ZM197.451 27.001V18.2654H199.081V27.001H197.451Z" fill="#134B94"/>
</g>
<defs>
<clipPath id="clip0_1038_5203">
<rect width="199.08" height="40" fill="white"/>
</clipPath>
</defs>
</svg>
